<svg width="32" height="32" viewBox="0 0 32 32" fill="none" xmlns="http://www.w3.org/2000/svg">
<path d="M28 26.4762V13.5238C28 13.2872 27.9458 13.0539 27.8416 12.8423C27.7375 12.6308 27.5863 12.4467 27.4 12.3048L16.9 4.30476C16.6404 4.10694 16.3246 4 16 4C15.6754 4 15.3596 4.10694 15.1 4.30476L4.6 12.3048C4.41371 12.4467 4.2625 12.6308 4.15836 12.8423C4.05422 13.0539 4 13.2872 4 13.5238V26.4762C4 26.8803 4.15804 27.2679 4.43934 27.5537C4.72064 27.8395 5.10218 28 5.5 28H11.5C11.8978 28 12.2794 27.8395 12.5607 27.5537C12.842 27.2679 13 26.8803 13 26.4762V21.9048C13 21.5006 13.158 21.113 13.4393 20.8273C13.7206 20.5415 14.1022 20.381 14.5 20.381H17.5C17.8978 20.381 18.2794 20.5415 18.5607 20.8273C18.842 21.113 19 21.5006 19 21.9048V26.4762C19 26.8803 19.158 27.2679 19.4393 27.5537C19.7206 27.8395 20.1022 28 20.5 28H26.5C26.8978 28 27.2794 27.8395 27.5607 27.5537C27.842 27.2679 28 26.8803 28 26.4762Z" stroke="white" stroke-width="2.5" stroke-linecap="round" stroke-linejoin="round"/>
</svg>
