<svg width="16" height="16" viewBox="0 0 16 16" fill="none" xmlns="http://www.w3.org/2000/svg">
<path d="M14.6465 8.335C14.6465 10.0089 13.9816 11.6143 12.7979 12.7979C11.6143 13.9816 10.0089 14.6465 8.335 14.6465V15.67C12.386 15.67 15.67 12.386 15.67 8.335H14.6465ZM8.335 14.6465C6.66108 14.6465 5.05573 13.9816 3.87209 12.7979C2.68845 11.6143 2.02349 10.0089 2.02349 8.335H1C1 12.386 4.28403 15.67 8.335 15.67V14.6465ZM2.02349 8.335C2.02349 6.66108 2.68845 5.05573 3.87209 3.87209C5.05573 2.68845 6.66108 2.02349 8.335 2.02349V1C4.28403 1 1 4.28403 1 8.335H2.02349ZM10.7231 9.87023C9.6826 9.87023 8.68467 9.45688 7.9489 8.7211C7.21312 7.98533 6.79977 6.9874 6.79977 5.94686H5.77628C5.77628 7.25885 6.29746 8.5171 7.22518 9.44482C8.1529 10.3725 9.41115 10.8937 10.7231 10.8937V9.87023ZM14.0836 7.97269C13.7345 8.55174 13.2416 9.03074 12.6528 9.3632C12.064 9.69567 11.3993 9.87033 10.7231 9.87023V10.8937C11.5756 10.894 12.4137 10.6739 13.1561 10.2549C13.8985 9.83588 14.52 9.23212 14.9604 8.50217L14.0836 7.97269ZM6.79977 5.94686C6.79967 5.27069 6.97433 4.60598 7.3068 4.01719C7.63927 3.42841 8.11826 2.93554 8.69732 2.58641L8.16783 1.7103C7.43798 2.15059 6.83428 2.772 6.41527 3.51427C5.99626 4.25654 5.77614 5.09449 5.77628 5.94686H6.79977ZM8.335 2.02349C8.30071 2.02283 8.26689 2.01537 8.2355 2.00155C8.20411 1.98773 8.17578 1.96782 8.15214 1.94297C8.12337 1.91408 8.10389 1.87725 8.09619 1.83721C8.09346 1.81606 8.09482 1.75465 8.16783 1.7103L8.69732 2.58641C9.04052 2.37898 9.15106 1.99892 9.1108 1.70007C9.0685 1.38961 8.82423 1 8.335 1V2.02349ZM14.9604 8.50217C14.9153 8.57518 14.8539 8.57654 14.8328 8.57381C14.7927 8.56611 14.7559 8.54663 14.727 8.51786C14.7022 8.49422 14.6823 8.46589 14.6684 8.4345C14.6546 8.40311 14.6472 8.36929 14.6465 8.335H15.67C15.67 7.84577 15.2804 7.6015 14.9699 7.5592C14.6711 7.51894 14.291 7.62948 14.0836 7.97269L14.9604 8.50217Z" fill="white"/>
</svg>
