<svg width="16" height="16" viewBox="0 0 16 16" fill="none" xmlns="http://www.w3.org/2000/svg">
<g clip-path="url(#clip0_11_1896)">
<path d="M14.6667 8H15.3334M8.00008 1.33333V0.666666M8.00008 15.3333V14.6667M13.3334 13.3333L12.6667 12.6667M13.3334 2.66667L12.6667 3.33333M2.66675 13.3333L3.33341 12.6667M2.66675 2.66667L3.33341 3.33333M0.666748 8H1.33341M8.00008 12C9.06095 12 10.0784 11.5786 10.8285 10.8284C11.5787 10.0783 12.0001 9.06087 12.0001 8C12.0001 6.93913 11.5787 5.92172 10.8285 5.17157C10.0784 4.42143 9.06095 4 8.00008 4C6.93922 4 5.9218 4.42143 5.17165 5.17157C4.42151 5.92172 4.00008 6.93913 4.00008 8C4.00008 9.06087 4.42151 10.0783 5.17165 10.8284C5.9218 11.5786 6.93922 12 8.00008 12Z" stroke="black" stroke-linecap="round" stroke-linejoin="round"/>
</g>
<defs>
<clipPath id="clip0_11_1896">
<rect width="16" height="16" fill="white"/>
</clipPath>
</defs>
</svg>
